<?xml version="1.0" encoding="UTF-8"?>
<!DOCTYPE svg PUBLIC "-//W3C//DTD SVG 1.1//EN" "http://www.w3.org/Graphics/SVG/1.1/DTD/svg11.dtd">
<!-- Creator: CorelDRAW 2021 (64-Bit) -->
<svg xmlns="http://www.w3.org/2000/svg" xml:space="preserve" width="3.24907in" height="3.24907in" version="1.1" style="shape-rendering:geometricPrecision; text-rendering:geometricPrecision; image-rendering:optimizeQuality; fill-rule:evenodd; clip-rule:evenodd"
viewBox="0 0 236.54 236.54"
 xmlns:xlink="http://www.w3.org/1999/xlink"
 xmlns:xodm="http://www.corel.com/coreldraw/odm/2003">
 <defs>
  <style type="text/css">
   <![CDATA[
    .fil2 {fill:black}
    .fil0 {fill:#E4E4E4}
    .fil1 {fill:#FF5D8F}
   ]]>
  </style>
 </defs>
 <g id="Layer_x0020_1">
  <metadata id="CorelCorpID_0Corel-Layer"/>
  <g id="_2682850325696">
   <rect class="fil0" x="-0" y="-0" width="236.54" height="236.54"/>
   <g>
    <path class="fil1" d="M39.58 179.29l-0.13 1.65 44.6 0.11 -0.03 -1.82c-12.18,-0.08 -27.23,0.71 -21.31,-15.11l10.48 -28.44 49.44 -0.16c3.06,7.24 7.08,18.5 10.17,26.41 1.47,3.75 4.55,10.83 1.09,14.47 -3.39,3.57 -10.31,2.35 -15.75,2.89l-0.11 1.63 33.82 0.15c-0.31,-2.32 -23.44,-59.1 -24.91,-62.81l-18.75 -46.91c-2.08,-5.02 -4.58,-10.82 -6.36,-15.81l-1.92 -0.03c-4.19,11.41 -7.88,22.37 -12.21,33.8 -4.23,11.13 -8.26,22.53 -12.2,33.81 -3.97,11.36 -8.34,22.48 -12.29,33.81 -2.91,8.34 -5.4,19.01 -12.89,21.51 -3.58,1.2 -6.95,0.41 -10.74,0.87zm34.34 -45.67l47.73 0.06c-0.03,-1.58 -10.93,-28.49 -12.34,-32.19 -2.07,-5.43 -4.29,-10.87 -6.24,-16.35 -1.89,-5.31 -3.75,-11.67 -5.76,-16.7 -0.53,0.63 -10.46,29.11 -11.73,32.6 -0.89,2.44 -11.46,30.85 -11.65,32.58z"/>
    <path class="fil1" d="M190.89 86.28l-1.12 -30.77 -75.49 -0.02c0.43,2.72 1.78,1.83 4.62,1.83l20.28 -0.01c10.07,0.08 29.43,-1.16 38.03,2.01 10.67,3.94 11.1,15.37 11.62,25.19 0.11,2.01 0.16,1.74 2.08,1.77z"/>
    <path class="fil2" d="M145.91 118.26c1.48,0.73 3.72,0.88 5.39,1.68 1.63,0.78 3.23,2.03 4.36,3.08 2.33,2.17 4.46,5.49 5.06,9.89l0.86 -2.85c0.3,-1.01 0.6,-1.73 1.02,-2.53 1.06,-2 1.67,-2.82 3.17,-4.25 1.36,-1.29 2.14,-2.01 4.28,-3.09 1.92,-0.97 3.98,-1.17 5.58,-1.93 -3.18,-1.55 -8.9,-1.29 -12.99,-9.27 -1.14,-2.23 -1.06,-3.69 -1.83,-5.62 -0.64,4.33 -2.67,7.85 -4.95,10 -4.38,4.15 -7.36,3.67 -9.94,4.89z"/>
    <path class="fil1" d="M165.77 179.29l0.45 1.72 29.59 0.03 1.29 -30.76 -1.81 -0.04c-1.91,9.74 1.38,24.18 -15.85,27.9 -4.87,1.05 -8.66,0.64 -13.66,1.16z"/>
   </g>
  </g>
 </g>
</svg>
